<svg width="12" height="12" viewBox="0 0 12 12" fill="none" xmlns="http://www.w3.org/2000/svg">
<path fill-rule="evenodd" clip-rule="evenodd" d="M0.343146 10.2426C-0.0473788 10.6332 -0.0473784 11.2663 0.343146 11.6568C0.73367 12.0474 1.36683 12.0474 1.75736 11.6568L6 7.4142L10.2426 11.6568C10.6332 12.0474 11.2663 12.0474 11.6569 11.6568C12.0474 11.2663 12.0474 10.6332 11.6569 10.2426L7.41421 5.99999L11.6569 1.75735C12.0474 1.36682 12.0474 0.733657 11.6569 0.343133C11.2663 -0.0473915 10.6332 -0.0473915 10.2426 0.343133L6 4.58577L1.75736 0.343133C1.36684 -0.0473909 0.73367 -0.0473908 0.343146 0.343133C-0.0473788 0.733658 -0.0473785 1.36682 0.343146 1.75735L4.58579 5.99999L0.343146 10.2426Z" fill="#2B3350"/>
</svg>
