<svg width="88" height="88" viewBox="0 0 88 88" fill="none" xmlns="http://www.w3.org/2000/svg">
<path d="M82.5 28.875H33C31.906 28.875 30.8568 29.3096 30.0832 30.0832C29.3096 30.8568 28.875 31.906 28.875 33V82.5C28.875 83.594 29.3096 84.6432 30.0832 85.4168C30.8568 86.1904 31.906 86.625 33 86.625H82.5C83.594 86.625 84.6432 86.1904 85.4168 85.4168C86.1904 84.6432 86.625 83.594 86.625 82.5V33C86.625 31.906 86.1904 30.8568 85.4168 30.0832C84.6432 29.3096 83.594 28.875 82.5 28.875ZM79.75 67.375H77V79.75C77 80.1147 76.8551 80.4644 76.5973 80.7223C76.3394 80.9801 75.9897 81.125 75.625 81.125H70.125C69.7603 81.125 69.4106 80.9801 69.1527 80.7223C68.8949 80.4644 68.75 80.1147 68.75 79.75V67.375H66C65.7546 67.375 65.5136 67.3093 65.3021 67.1847C65.0906 67.0601 64.9163 66.8812 64.7974 66.6666C64.6784 66.4519 64.619 66.2093 64.6255 65.9639C64.6319 65.7185 64.7039 65.4794 64.834 65.2712L71.709 54.2712C71.8408 54.0837 72.0158 53.9307 72.2192 53.825C72.4227 53.7194 72.6485 53.6642 72.8777 53.6642C73.107 53.6642 73.3328 53.7194 73.5362 53.825C73.7397 53.9307 73.9147 54.0837 74.0465 54.2712L80.9215 65.2712C81.0518 65.4798 81.1239 65.7194 81.1301 65.9653C81.1363 66.2111 81.0764 66.4541 80.9568 66.669C80.8372 66.8838 80.6621 67.0626 80.4498 67.1868C80.2376 67.311 79.9959 67.376 79.75 67.375V67.375Z" fill="url(#paint0_linear_68_303)"/>
<path d="M68.5227 50.8946L36.7121 56.1953C35.9982 53.6077 34.3607 51.3716 32.1095 49.9099C29.8582 48.4481 27.1493 47.8622 24.4952 48.2629L13.7138 2.43688C13.6352 2.10221 13.434 1.80914 13.1499 1.61545C12.8659 1.42176 12.5196 1.34151 12.1793 1.39051L2.55431 2.76551C2.37185 2.78669 2.19548 2.84422 2.03562 2.9347C1.87577 3.02517 1.73566 3.14676 1.62357 3.29228C1.51148 3.4378 1.42969 3.60431 1.38302 3.78196C1.33634 3.95962 1.32574 4.14483 1.35183 4.32665C1.37793 4.50847 1.44019 4.68322 1.53494 4.84059C1.62968 4.99795 1.755 5.13473 1.90349 5.24286C2.05198 5.35099 2.22063 5.42827 2.39948 5.47013C2.57833 5.512 2.76375 5.51761 2.94481 5.48663L11.3241 4.29038L21.8428 48.993C20.011 49.7671 18.4233 51.0233 17.2486 52.6279C16.074 54.2326 15.3563 56.1257 15.1719 58.1057C14.9876 60.0858 15.3435 62.0789 16.2017 63.8728C17.06 65.6667 18.3885 67.1944 20.0459 68.2933C21.7033 69.3923 23.6277 70.0213 25.6142 70.1136C27.6007 70.2059 29.5751 69.7579 31.3272 68.8173C33.0794 67.8767 34.5438 66.4788 35.5646 64.7721C36.5855 63.0655 37.1246 61.114 37.1246 59.1254C37.1246 59.0553 37.1149 58.9879 37.1136 58.9178L68.9764 53.6075C69.3362 53.5473 69.6573 53.3467 69.8691 53.0498C70.081 52.7529 70.1662 52.3839 70.106 52.0242C70.0458 51.6644 69.8452 51.3433 69.5483 51.1315C69.2514 50.9197 68.8824 50.8345 68.5227 50.8946V50.8946ZM26.1246 67.3754C24.4929 67.3754 22.8978 66.8915 21.5411 65.985C20.1844 65.0785 19.127 63.79 18.5026 62.2825C17.8781 60.775 17.7148 59.1162 18.0331 57.5159C18.3514 55.9155 19.1371 54.4455 20.2909 53.2917C21.4447 52.138 22.9147 51.3522 24.5151 51.0339C26.1154 50.7156 27.7742 50.8789 29.2817 51.5034C30.7892 52.1278 32.0777 53.1852 32.9842 54.5419C33.8907 55.8986 34.3746 57.4937 34.3746 59.1254C34.3724 61.3127 33.5025 63.4099 31.9558 64.9566C30.4091 66.5033 28.3119 67.3732 26.1246 67.3754Z" fill="#0074D4"/>
<path d="M33.2744 26.0992L53.8994 21.9742C54.0765 21.9381 54.2447 21.8675 54.3945 21.7663C54.5443 21.6652 54.6727 21.5355 54.7723 21.3846C54.8719 21.2338 54.9408 21.0648 54.9751 20.8873C55.0093 20.7099 55.0082 20.5274 54.9719 20.3503L52.2219 6.60032C52.1858 6.42335 52.1152 6.25522 52.0141 6.10553C51.913 5.95585 51.7835 5.82755 51.6328 5.72795C51.4821 5.62835 51.3133 5.55942 51.136 5.52508C50.9587 5.49074 50.7763 5.49167 50.5994 5.52782L29.9743 9.65282C29.7974 9.6889 29.6292 9.7595 29.4796 9.86057C29.3299 9.96164 29.2016 10.0912 29.102 10.2419C29.0024 10.3926 28.9334 10.5614 28.8991 10.7387C28.8648 10.916 28.8657 11.0984 28.9018 11.2753L31.6518 25.0253C31.6878 25.2024 31.7583 25.3707 31.8593 25.5205C31.9603 25.6704 32.0898 25.7988 32.2405 25.8986C32.3912 25.9983 32.5601 26.0674 32.7375 26.1018C32.9149 26.1362 33.0973 26.1353 33.2744 26.0992V26.0992ZM49.8005 8.4992L52.0115 19.5528L34.0787 23.1333L31.8677 12.0797L49.8005 8.4992Z" fill="#0074D4"/>
<path d="M67.3516 24.4973C67.2846 24.1422 67.0806 23.8278 66.7837 23.6219C66.4868 23.4161 66.1208 23.3354 65.7648 23.3973L34.1398 28.8973C33.9604 28.9286 33.789 28.9952 33.6356 29.0932C33.4821 29.1913 33.3497 29.3189 33.2459 29.4685C33.1422 29.6182 33.0692 29.787 33.0312 29.9651C32.9932 30.1432 32.991 30.3271 33.0247 30.506L37.1497 52.506C37.2092 52.8206 37.3767 53.1046 37.6232 53.3089C37.8697 53.5132 38.1798 53.6251 38.4999 53.6253C38.5791 53.625 38.6582 53.6185 38.7364 53.606L70.3614 48.106C70.541 48.0749 70.7125 48.0084 70.8661 47.9104C71.0197 47.8124 71.1523 47.6849 71.2562 47.5352C71.3601 47.3855 71.4332 47.2167 71.4712 47.0385C71.5093 46.8603 71.5116 46.6763 71.4779 46.4973L67.3516 24.4973ZM39.5999 50.6635L35.9823 31.3668L64.8999 26.3384L68.5189 45.6352L39.5999 50.6635Z" fill="#0074D4"/>
<defs>
<linearGradient id="paint0_linear_68_303" x1="57.75" y1="28.875" x2="57.75" y2="86.625" gradientUnits="userSpaceOnUse">
<stop stop-color="#EEF2F5"/>
<stop offset="1" stop-color="#FAFBFC"/>
</linearGradient>
</defs>
</svg>
